<svg version="1.1" id="Layer_1" xmlns="http://www.w3.org/2000/svg" xmlns:xlink="http://www.w3.org/1999/xlink" x="0px" y="0px"
	 width="100%" viewBox="0 0 275 275" enable-background="new 0 0 275 275" xml:space="preserve">
<path fill="#FEFEFE" opacity="1.000000" stroke="none" 
	d="
M276.000000,106.000000 
	C276.000000,162.974319 276.000000,219.448624 276.000000,275.961487 
	C184.400711,275.961487 92.801407,275.961487 1.101049,275.961487 
	C1.101049,184.442474 1.101049,92.884804 1.101049,1.163566 
	C92.666428,1.163566 184.333191,1.163566 276.000000,1.163566 
	C276.000000,35.865074 276.000000,70.682533 276.000000,106.000000 
M16.699440,106.664482 
	C16.185024,108.773697 15.670609,110.882912 14.883144,113.762299 
	C14.465693,116.520424 14.048244,119.278549 13.330609,122.744766 
	C13.125738,125.132118 12.920867,127.519478 12.324799,130.608170 
	C12.289313,133.401474 12.253828,136.194763 12.077441,139.903610 
	C11.869460,154.888153 14.817915,169.298157 20.181572,183.225708 
	C20.739342,184.674057 22.269201,186.699173 23.468542,186.785675 
	C28.834419,187.172653 34.243973,186.953979 40.466129,186.953979 
	C32.783497,171.231140 29.507107,155.420807 29.067791,138.135803 
	C29.094650,136.114441 29.121511,134.093079 29.549698,131.372772 
	C29.685303,128.246719 29.820908,125.120674 30.027699,121.237015 
	C30.778032,118.517708 31.528368,115.798393 32.706100,112.508553 
	C33.104656,110.337166 33.503212,108.165787 34.202652,105.362724 
	C35.152714,103.248451 36.102776,101.134171 37.519825,98.561073 
	C38.060406,96.907776 38.600983,95.254478 39.770744,93.195580 
	C41.239929,90.491379 42.709114,87.787178 44.701572,84.702126 
	C45.827579,82.850342 46.953583,80.998550 48.650684,78.762169 
	C50.450729,76.311279 52.250771,73.860397 54.555153,71.162521 
	C56.038345,69.478645 57.521538,67.794762 59.601379,65.822418 
	C61.440483,64.004784 63.279587,62.187153 65.749794,60.075710 
	C91.645500,38.919750 121.025146,31.028925 153.997391,37.007645 
	C169.844482,39.881134 183.911819,46.874744 197.365158,56.556004 
	C200.192825,58.863583 203.020493,61.171162 206.153595,64.019882 
	C208.035141,65.864037 209.916702,67.708191 212.034668,70.151382 
	C214.229568,72.753853 216.424454,75.356316 218.798508,78.517685 
	C220.160309,80.425987 221.522095,82.334290 223.057144,84.894386 
	C224.621414,87.459999 226.185699,90.025604 227.772781,93.257523 
	C228.687729,95.220360 229.602692,97.183197 230.692566,99.884422 
	C231.696304,102.642960 232.700027,105.401505 233.851212,108.886353 
	C234.493576,110.945892 235.135941,113.005432 235.814957,115.897865 
	C236.423004,119.332230 237.031067,122.766602 237.761169,127.050850 
	C237.951828,129.362320 238.142487,131.673782 238.172882,134.909775 
	C239.008865,152.911224 235.171280,170.036011 227.266724,186.966156 
	C233.117691,186.966156 237.773438,186.807755 242.411652,187.024597 
	C245.266724,187.158066 246.440506,185.958633 247.419144,183.404465 
	C253.649750,167.143173 256.225677,150.366547 255.103821,132.122650 
	C254.949814,130.068390 254.795822,128.014114 254.720795,125.180656 
	C253.996887,121.383331 253.272980,117.586006 252.408920,113.030197 
	C251.788727,110.713165 251.168549,108.396133 250.448029,105.268852 
	C249.339355,102.113365 248.230682,98.957886 247.063019,95.140091 
	C246.259277,93.370926 245.455551,91.601761 244.456253,89.107491 
	C243.014343,86.338425 241.572433,83.569366 239.998383,80.126366 
	C238.400299,77.634727 236.802231,75.143082 234.822632,72.114059 
	C233.345993,70.023232 231.869370,67.932404 230.111099,65.232185 
	C228.591019,63.437462 227.070923,61.642735 225.214203,59.233582 
	C223.076187,57.056801 220.938156,54.880020 218.422119,52.105385 
	C189.024612,24.404879 154.139999,13.465214 114.392776,19.437901 
	C86.374969,23.648041 62.594940,36.592304 43.146473,58.315048 
	C41.657875,60.180130 40.169281,62.045212 38.143524,64.225014 
	C37.072853,65.771004 36.002182,67.317001 34.367832,69.240128 
	C32.791382,71.793190 31.214933,74.346260 29.148819,77.286613 
	C28.391966,78.788765 27.635115,80.290916 26.346682,82.257271 
	C25.028950,85.123993 23.711216,87.990715 21.979017,91.401451 
	C21.069981,93.896187 20.160942,96.390923 18.894264,99.410194 
	C18.263302,101.606590 17.632338,103.802979 16.699440,106.664482 
M85.473808,78.019547 
	C85.457794,106.332512 85.421898,134.645493 85.439400,162.958435 
	C85.443924,170.276031 85.616005,177.593521 85.574265,185.503052 
	C85.642387,185.693787 85.710503,185.884521 86.299339,186.791428 
	C97.076248,186.791428 107.853157,186.791428 119.169144,186.791428 
	C119.169144,172.246613 119.169144,158.017731 119.169144,143.874054 
	C127.392715,141.880508 133.457535,143.732590 137.191010,151.191254 
	C138.083115,152.973480 139.196533,154.643509 140.139816,156.401810 
	C145.018219,165.495377 149.809967,174.636505 154.806931,183.664200 
	C155.567810,185.038834 157.224106,186.837677 158.499283,186.864426 
	C170.236786,187.110626 181.981567,187.009506 194.664139,187.009506 
	C187.662857,175.190521 180.885956,164.365799 174.754639,153.186981 
	C170.556381,145.532578 165.564743,139.324554 156.364822,137.459595 
	C158.027863,136.649734 159.603867,136.238419 161.167908,135.785736 
	C177.300522,131.116394 185.763809,118.214165 183.890198,101.157188 
	C182.322281,86.883133 170.993515,76.300095 154.985443,75.916855 
	C132.346527,75.374870 109.683113,75.855392 86.290421,75.905060 
	C86.092232,76.309387 85.894043,76.713707 85.473808,78.019547 
M206.310440,205.113327 
	C200.135437,205.125778 199.746613,205.591232 200.550659,211.514603 
	C200.724335,212.794022 200.479065,214.126083 200.596863,215.418396 
	C200.741760,217.007675 200.863815,219.866821 201.345306,219.942123 
	C203.654251,220.303284 206.123276,220.117584 208.439423,219.650223 
	C209.088821,219.519196 209.955048,217.634583 209.746414,216.797440 
	C209.487289,215.757629 208.348358,214.747406 207.338593,214.144638 
	C206.538223,213.666901 205.359970,213.822235 203.248856,213.559448 
	C205.362793,212.687210 206.857620,212.547379 207.328171,211.779709 
	C208.398331,210.033813 208.965363,207.979523 209.736877,206.050552 
	C208.873978,205.744461 208.011093,205.438370 206.310440,205.113327 
M157.192841,228.458633 
	C157.476028,230.376221 157.697891,232.305969 158.074310,234.205078 
	C158.213669,234.908157 158.627792,235.616104 159.101562,236.161041 
	C159.264618,236.348572 160.391556,236.075317 160.399200,235.965408 
	C160.579224,233.372345 161.044022,230.705368 160.597412,228.205414 
	C160.399414,227.097000 158.364319,225.604767 157.094101,225.534485 
	C153.408844,225.330658 149.688644,225.758499 146.117676,225.931915 
	C146.117676,229.554718 146.117676,232.886612 146.117676,236.218506 
	C146.655746,236.309418 147.193802,236.400330 147.731873,236.491241 
	C148.307373,233.720200 148.882874,230.949158 149.458389,228.178131 
	C150.005142,228.122986 150.551910,228.067841 151.098679,228.012711 
	C151.539642,230.746872 151.980621,233.481049 152.421585,236.215210 
	C152.826065,236.305283 153.230530,236.395340 153.635010,236.485413 
	C154.049149,235.256317 154.467148,234.028503 154.876450,232.797806 
	C155.386658,231.263672 155.889694,229.727173 157.192841,228.458633 
M84.021118,224.416885 
	C83.232201,228.295364 82.443275,232.173859 81.654358,236.052338 
	C81.991173,236.362305 82.327995,236.672272 82.664818,236.982224 
	C85.937759,231.653610 89.393784,234.190231 93.685890,237.502594 
	C92.557999,232.349838 91.829666,228.827240 91.009529,225.326141 
	C90.030304,221.145950 87.951416,220.637344 84.021118,224.416885 
M57.236477,206.321701 
	C57.030972,204.666077 56.825466,203.010452 56.559120,200.864639 
	C52.911526,204.224274 53.244499,214.221558 56.637417,215.808090 
	C56.948040,213.869217 57.247265,212.001495 57.587086,209.880371 
	C59.252316,210.046997 60.648369,210.186691 62.034039,210.325348 
	C62.119228,211.387527 62.036285,212.093964 62.254066,212.690643 
	C62.653946,213.786270 63.231018,214.817230 63.734219,215.875137 
	C64.309486,214.741287 65.247864,213.648743 65.382530,212.464767 
	C65.642715,210.177277 65.631157,207.818085 65.377380,205.527939 
	C65.220619,204.113251 64.408905,202.771149 63.891228,201.396454 
	C63.323357,202.722549 62.743862,204.043869 62.194263,205.377502 
	C62.015308,205.811737 61.914413,206.278137 61.711258,206.949905 
	C60.407101,206.949905 59.122833,206.949905 57.236477,206.321701 
M171.575165,209.762451 
	C172.765518,211.838348 173.517990,214.730560 175.307083,215.690231 
	C176.416397,216.285263 180.009155,214.432541 180.870605,212.816727 
	C182.307617,210.121262 181.843613,206.666992 178.390747,205.362045 
	C175.185944,204.150864 172.524384,205.220947 171.575165,209.762451 
M188.512711,212.024948 
	C189.209641,215.193756 191.385498,216.846359 194.301483,215.825714 
	C195.899033,215.266541 197.578720,213.104950 197.980026,211.377533 
	C198.653336,208.479294 197.826263,205.510406 194.112411,205.086990 
	C189.618195,204.574631 188.350601,207.410919 188.512711,212.024948 
M70.048004,215.820404 
	C72.090302,215.677673 74.132599,215.534927 76.174896,215.392181 
	C76.160858,214.874359 76.146820,214.356537 76.132782,213.838699 
	C74.488029,213.527878 72.843269,213.217056 71.198517,212.906235 
	C71.207375,212.690781 71.216232,212.475342 71.225090,212.259903 
	C72.889656,212.025299 74.554230,211.790695 76.401321,211.530365 
	C77.189034,207.997070 76.445396,205.484650 72.547493,205.057632 
	C68.897736,204.657806 67.347336,207.055786 67.405861,210.192398 
	C67.438889,211.962784 68.652191,213.711136 70.048004,215.820404 
M128.078262,211.362274 
	C129.689194,216.707214 133.255173,217.831772 137.069351,213.861725 
	C135.079254,213.508896 133.278885,213.189697 131.478516,212.870514 
	C131.486832,212.655975 131.495132,212.441437 131.503448,212.226898 
	C133.362885,211.998764 135.222321,211.770645 137.222229,211.525284 
	C137.621262,208.095016 137.291718,205.425201 133.465973,205.059433 
	C129.589142,204.688766 128.200256,207.070419 128.078262,211.362274 
M82.610344,215.987473 
	C84.200867,215.884857 85.791389,215.782227 88.222900,215.625351 
	C87.047226,211.874557 86.376518,208.378281 84.739578,205.415909 
	C84.301483,204.623077 80.913651,205.460220 78.879990,205.549072 
	C78.889450,206.062836 78.898918,206.576599 78.908379,207.090363 
	C80.460106,207.455460 82.011833,207.820557 83.017334,208.057129 
	C81.375549,209.524353 79.713905,211.009323 78.052261,212.494293 
	C79.289589,213.679977 80.526917,214.865662 82.610344,215.987473 
M114.520874,232.137344 
	C116.297470,237.205643 119.429199,238.104340 123.434013,234.469589 
	C121.565315,234.108932 119.843216,233.776566 118.121124,233.444214 
	C118.141998,233.158325 118.162872,232.872437 118.183746,232.586548 
	C120.014961,232.287125 121.846169,231.987701 123.715652,231.682037 
	C124.119621,228.113678 123.134003,225.658646 119.499794,225.473495 
	C115.511658,225.270309 114.576599,228.093582 114.520874,232.137344 
M148.923492,214.031815 
	C149.347275,214.629211 149.771057,215.226608 150.194855,215.823990 
	C150.757782,215.182449 151.689880,214.604233 151.812820,213.887253 
	C152.150497,211.918091 152.148499,209.890656 152.280914,207.886292 
	C152.838531,207.805756 153.396149,207.725235 153.953766,207.644699 
	C154.717133,210.463409 155.480515,213.282120 156.243881,216.100830 
	C159.198730,208.589050 158.749573,207.566254 153.123337,204.946503 
	C152.494095,204.653534 152.118118,203.510193 151.912262,202.689117 
	C151.631683,201.570160 151.627609,200.381882 151.504974,199.223328 
	C150.640900,199.913696 149.776825,200.604065 148.912750,201.294434 
	C148.912750,205.237152 148.912750,209.179855 148.923492,214.031815 
M105.079964,201.255417 
	C104.391609,201.472565 103.108719,201.674576 103.102753,201.909103 
	C102.984825,206.543030 103.014915,211.180695 103.014915,215.817612 
	C103.679291,215.892426 104.343658,215.967224 105.008034,216.042038 
	C105.469955,213.351395 105.931877,210.660736 106.393806,207.970093 
	C106.878716,207.862946 107.363632,207.755798 107.848549,207.648651 
	C108.620354,210.461105 109.392151,213.273560 110.513290,217.358978 
	C113.258102,209.550964 112.532822,207.913757 106.783424,204.902756 
	C106.072266,204.530319 106.001015,202.936035 105.079964,201.255417 
M211.947983,210.611282 
	C213.024124,213.775772 214.100266,216.940277 215.170898,220.088562 
	C217.844284,218.579025 220.453674,209.815109 218.612396,204.847229 
	C217.603882,207.358490 216.595383,209.869766 215.664124,212.188721 
	C214.657730,209.806061 213.620697,207.350830 212.583649,204.895584 
	C212.042221,205.137268 211.500793,205.378952 210.959366,205.620651 
	C211.231964,207.022552 211.504547,208.424469 211.947983,210.611282 
M172.053101,228.340683 
	C170.332443,224.738373 167.002396,224.221207 164.891541,226.696442 
	C163.410156,228.433548 163.040146,232.636322 164.133377,234.699936 
	C165.826904,237.896713 169.155151,236.687210 171.832535,234.431473 
	C169.982819,234.084656 168.133102,233.737854 165.909119,233.320862 
	C168.008286,230.902817 172.894974,234.435913 172.053101,228.340683 
M161.552277,215.842819 
	C162.570282,213.267212 163.588287,210.691620 164.634232,208.045319 
	C164.791611,208.035736 165.376984,207.931168 165.402115,208.008530 
	C166.244202,210.601425 167.032867,213.211655 168.126221,216.791397 
	C170.749420,213.272308 170.723663,209.573090 169.038101,207.381989 
	C167.610779,205.526566 163.973541,205.371170 160.286972,204.112778 
	C160.527298,208.921890 160.689941,212.176727 161.552277,215.842819 
M130.232330,236.614075 
	C131.441940,235.467911 133.852127,233.612671 133.663071,233.292587 
	C132.572510,231.446106 130.867645,229.962448 129.366623,228.351318 
	C130.595337,228.159744 132.069321,227.929947 134.490311,227.552490 
	C131.013321,224.981155 128.030975,224.261673 126.020454,227.097305 
	C122.938568,231.444016 128.437546,231.429657 130.464005,233.564072 
	C128.463730,233.865097 126.966850,234.090363 125.469978,234.315628 
	C125.400581,234.736450 125.331184,235.157288 125.261780,235.578125 
	C126.676315,235.937759 128.090836,236.297409 130.232330,236.614075 
M136.251663,231.245575 
	C137.710327,231.870468 139.168976,232.495346 141.412308,233.456360 
	C138.818512,233.845871 137.115524,234.101608 135.412537,234.357346 
	C138.185745,236.951324 141.256027,237.794373 143.198685,234.876282 
	C146.030930,230.621918 140.966690,230.405441 138.600677,228.496811 
	C140.651581,228.164948 142.119736,227.927383 143.587891,227.689804 
	C143.584000,227.125702 143.580124,226.561584 143.576233,225.997467 
	C141.401184,225.997467 139.061508,225.529556 137.125992,226.210480 
	C136.261032,226.514771 136.207657,229.126068 136.251663,231.245575 
M109.971741,225.529022 
	C108.139145,226.494614 106.306549,227.460205 104.473953,228.425797 
	C105.967598,230.218323 107.461243,232.010864 108.880478,233.714096 
	C107.961655,233.853210 106.283806,234.107224 104.605957,234.361252 
	C107.305389,236.963776 110.389641,237.801239 112.297752,234.890335 
	C115.065948,230.667297 110.138260,230.355820 107.501892,228.433792 
	C109.699272,228.146240 111.186142,227.951675 113.876747,227.599594 
	C112.114182,226.537476 111.389503,226.100784 109.971741,225.529022 
M179.433929,228.292953 
	C180.113632,230.986877 180.793335,233.680817 181.813370,237.723648 
	C185.494659,227.745117 183.277069,224.992371 173.879257,226.348114 
	C174.193939,229.626770 174.509430,232.913666 174.824905,236.200562 
	C175.286255,236.118896 175.747604,236.037231 176.208954,235.955551 
	C176.998749,233.350052 177.788528,230.744553 179.433929,228.292953 
M99.587341,232.934280 
	C98.035439,233.504883 96.483536,234.075485 94.931633,234.646103 
	C95.026711,235.243881 95.121796,235.841675 95.216873,236.439468 
	C97.605927,236.048950 101.055550,236.512604 102.186234,235.108643 
	C105.653511,230.803482 99.924362,230.550018 98.010994,228.419983 
	C99.895279,228.102112 101.359543,227.855103 102.823814,227.608093 
	C102.806694,227.128281 102.789581,226.648483 102.772461,226.168671 
	C100.550011,226.168671 98.291969,225.951675 96.127708,226.306580 
	C95.512901,226.407410 94.524200,228.740967 94.818321,229.076553 
	C95.981331,230.403519 97.585609,231.343750 99.587341,232.934280 
M186.089645,224.849945 
	C186.363129,228.297943 186.365829,231.806335 187.111237,235.149094 
	C187.285324,235.929688 189.979828,236.148209 191.514694,236.625336 
	C188.452621,231.486893 188.460449,230.349213 191.855347,226.791809 
	C190.973892,225.699432 190.262161,224.344406 189.142380,223.620728 
	C188.544495,223.234344 187.242279,223.937805 186.089645,224.849945 
M120.362549,204.197861 
	C120.846764,205.781448 121.536118,207.335938 121.766037,208.955612 
	C122.092819,211.257675 122.081764,213.607697 122.288147,217.214676 
	C127.713516,212.631866 120.973549,204.501083 129.431595,202.907852 
	C129.217773,202.417770 129.003952,201.927673 128.790131,201.437592 
	C125.506561,201.437592 122.222977,201.437592 118.939400,201.437592 
	C119.129539,202.327972 119.319672,203.218369 120.362549,204.197861 
M98.405136,210.512665 
	C99.213020,209.083817 100.020905,207.654968 100.292618,207.174423 
	C99.090591,205.158203 98.056297,203.423325 96.731316,201.200867 
	C93.104698,206.297318 95.024757,210.669174 96.149506,214.814606 
	C96.352188,215.561676 99.070625,215.626175 100.627571,216.005798 
	C100.698776,215.593323 100.769989,215.180847 100.841202,214.768372 
	C100.036804,213.635361 99.232414,212.502365 98.405136,210.512665 
M89.582291,204.012680 
	C89.582291,207.979156 89.582291,211.945633 89.582291,216.220352 
	C91.134689,215.825668 91.992577,215.729156 91.999969,215.588058 
	C92.236565,211.073135 92.952515,206.471039 92.303688,202.072754 
	C92.010674,200.086517 89.838600,200.799332 89.582291,204.012680 
M183.604156,207.590683 
	C183.616196,209.754318 183.533661,211.925232 183.699112,214.077057 
	C183.747452,214.705688 184.502228,215.279968 184.933197,215.879150 
	C185.516159,215.427338 186.600876,214.979019 186.604050,214.523178 
	C186.633987,210.221451 186.512909,205.916687 186.289001,201.620438 
	C186.276581,201.382126 184.971954,201.211166 183.606888,200.818436 
	C183.606888,203.129456 183.606888,204.905807 183.604156,207.590683 
M146.589798,213.859497 
	C145.065491,212.942612 143.541183,212.025726 142.016861,211.108856 
	C143.533676,209.456497 145.050491,207.804153 146.567307,206.151794 
	C144.337936,205.484695 140.816742,205.402374 140.207993,206.693375 
	C139.171417,208.891678 139.475601,212.120926 140.303986,214.545456 
	C140.538101,215.230728 144.554596,214.623703 146.589798,213.859497 
z"/>
<path fill="#3866B9" opacity="1.000000" stroke="none" 
	d="
M85.711128,184.911057 
	C85.616005,177.593521 85.443924,170.276031 85.439400,162.958435 
	C85.421898,134.645493 85.457794,106.332512 85.869232,77.437286 
	C86.519829,76.536301 86.775002,76.217575 87.030174,75.898849 
	C109.683113,75.855392 132.346527,75.374870 154.985443,75.916855 
	C170.993515,76.300095 182.322281,86.883133 183.890198,101.157188 
	C185.763809,118.214165 177.300522,131.116394 161.167908,135.785736 
	C159.603867,136.238419 158.027863,136.649734 156.364822,137.459595 
	C165.564743,139.324554 170.556381,145.532578 174.754639,153.186981 
	C180.885956,164.365799 187.662857,175.190521 194.664139,187.009506 
	C181.981567,187.009506 170.236786,187.110626 158.499283,186.864426 
	C157.224106,186.837677 155.567810,185.038834 154.806931,183.664200 
	C149.809967,174.636505 145.018219,165.495377 140.139816,156.401810 
	C139.196533,154.643509 138.083115,152.973480 137.191010,151.191254 
	C133.457535,143.732590 127.392715,141.880508 119.169144,143.874054 
	C119.169144,158.017731 119.169144,172.246613 119.169144,186.791428 
	C107.853157,186.791428 97.076248,186.791428 86.242279,186.322418 
	C86.027191,185.539291 85.869164,185.225174 85.711128,184.911057 
M119.305275,110.452438 
	C119.305275,113.060143 119.305275,115.667847 119.305275,118.589409 
	C126.946510,118.589409 134.057022,118.965561 141.105469,118.465942 
	C146.389008,118.091415 149.101929,114.505753 149.244171,109.467529 
	C149.384918,104.481789 147.172821,100.545082 142.798111,100.250038 
	C135.121780,99.732307 127.385376,100.105469 119.305550,100.105469 
	C119.305550,103.561172 119.305550,106.524612 119.305275,110.452438 
z"/>
<path fill="#3C69B9" opacity="1.000000" stroke="none" 
	d="
M43.693897,57.999901 
	C62.594940,36.592304 86.374969,23.648041 114.392776,19.437901 
	C154.139999,13.465214 189.024612,24.404879 218.140121,52.502197 
	C215.103546,53.266354 212.343506,53.597298 209.595657,54.009521 
	C205.401688,54.638695 201.216156,55.324055 197.027039,55.985558 
	C183.911819,46.874744 169.844482,39.881134 153.997391,37.007645 
	C121.025146,31.028925 91.645500,38.919750 65.339508,59.798050 
	C63.497108,59.013828 62.076881,58.113934 60.630764,58.070202 
	C54.989590,57.899609 49.340221,58.000172 43.693897,57.999901 
z"/>
<path fill="#A8A6A7" opacity="1.000000" stroke="none" 
	d="
M255.033218,133.002121 
	C256.225677,150.366547 253.649750,167.143173 247.419144,183.404465 
	C246.440506,185.958633 245.266724,187.158066 242.411652,187.024597 
	C237.773438,186.807755 233.117691,186.966156 227.266724,186.966156 
	C235.171280,170.036011 239.008865,152.911224 238.647263,134.436066 
	C244.425507,133.642288 249.729355,133.322205 255.033218,133.002121 
z"/>
<path fill="#A8A6A8" opacity="1.000000" stroke="none" 
	d="
M28.952600,138.995956 
	C29.507107,155.420807 32.783497,171.231140 40.466129,186.953979 
	C34.243973,186.953979 28.834419,187.172653 23.468542,186.785675 
	C22.269201,186.699173 20.739342,184.674057 20.181572,183.225708 
	C14.817915,169.298157 11.869460,154.888153 12.597289,139.449371 
	C18.395624,138.995407 23.674112,138.995682 28.952600,138.995956 
z"/>
<path fill="#476DB8" opacity="1.000000" stroke="none" 
	d="
M197.196106,56.270782 
	C201.216156,55.324055 205.401688,54.638695 209.595657,54.009521 
	C212.343506,53.597298 215.103546,53.266354 218.329132,52.801125 
	C220.938156,54.880020 223.076187,57.056801 224.912292,59.582844 
	C219.694534,60.288475 214.758652,60.485622 209.875366,61.100597 
	C208.455658,61.279392 207.186386,62.652889 205.848160,63.478737 
	C203.020493,61.171162 200.192825,58.863583 197.196106,56.270782 
z"/>
<path fill="#5C76B6" opacity="1.000000" stroke="none" 
	d="
M218.619354,77.958786 
	C216.424454,75.356316 214.229568,72.753853 212.092438,69.446518 
	C214.058136,68.161415 215.930588,67.319839 217.881348,67.054955 
	C222.030243,66.491608 226.219818,66.228035 230.392731,65.841583 
	C231.869370,67.932404 233.345993,70.023232 234.782684,72.729004 
	C230.934250,73.896423 227.073700,74.226654 223.340637,75.101105 
	C221.637207,75.500130 220.185318,76.972977 218.619354,77.958786 
z"/>
<path fill="#989AAD" opacity="1.000000" stroke="none" 
	d="
M237.639130,126.200974 
	C237.031067,122.766602 236.423004,119.332230 236.281494,115.462112 
	C242.015045,114.613800 247.282059,114.201233 252.549072,113.788681 
	C253.272980,117.586006 253.996887,121.383331 254.336060,125.479622 
	C249.902466,123.034698 241.377792,123.255440 237.639130,126.200974 
z"/>
<path fill="#677BB5" opacity="1.000000" stroke="none" 
	d="
M218.708923,78.238235 
	C220.185318,76.972977 221.637207,75.500130 223.340637,75.101105 
	C227.073700,74.226654 230.934250,73.896423 234.973450,72.997696 
	C236.802231,75.143082 238.400299,77.634727 239.806641,80.779037 
	C238.991135,81.618088 238.379044,81.879486 237.741699,81.978912 
	C232.791855,82.751083 227.837112,83.492004 222.883896,84.242592 
	C221.522095,82.334290 220.160309,80.425987 218.708923,78.238235 
z"/>
<path fill="#868DB1" opacity="1.000000" stroke="none" 
	d="
M247.122009,95.802406 
	C248.230682,98.957886 249.339355,102.113365 250.014725,105.647720 
	C244.288864,106.737732 238.996307,107.448891 233.703751,108.160049 
	C232.700027,105.401505 231.696304,102.642960 231.085846,99.474869 
	C232.297180,99.042374 233.146515,99.154701 233.928146,98.974083 
	C238.335083,97.955788 242.725784,96.867096 247.122009,95.802406 
z"/>
<path fill="#A09FA9" opacity="1.000000" stroke="none" 
	d="
M29.010197,138.565887 
	C23.674112,138.995682 18.395624,138.995407 12.667740,138.991608 
	C12.253828,136.194763 12.289313,133.401474 13.010811,130.287537 
	C15.821442,129.977951 17.983515,129.742432 20.061836,130.058182 
	C23.122013,130.523132 26.122473,131.381149 29.148371,132.071716 
	C29.121511,134.093079 29.094650,136.114441 29.010197,138.565887 
z"/>
<path fill="#A09FA9" opacity="1.000000" stroke="none" 
	d="
M237.700134,126.625916 
	C241.377792,123.255440 249.902466,123.034698 254.296570,125.869217 
	C254.795822,128.014114 254.949814,130.068390 255.068512,132.562378 
	C249.729355,133.322205 244.425507,133.642288 238.727386,133.973816 
	C238.142487,131.673782 237.951828,129.362320 237.700134,126.625916 
z"/>
<path fill="#8F93AF" opacity="1.000000" stroke="none" 
	d="
M32.278702,113.079086 
	C31.528368,115.798393 30.778032,118.517708 29.598902,121.567810 
	C23.990334,121.944633 18.810564,121.990654 13.630793,122.036674 
	C14.048244,119.278549 14.465693,116.520424 15.475135,113.379578 
	C21.470984,113.024269 26.874844,113.051674 32.278702,113.079086 
z"/>
<path fill="#7C86B2" opacity="1.000000" stroke="none" 
	d="
M247.092514,95.471252 
	C242.725784,96.867096 238.335083,97.955788 233.928146,98.974083 
	C233.146515,99.154701 232.297180,99.042374 230.998383,99.105682 
	C229.602692,97.183197 228.687729,95.220360 227.971298,92.541565 
	C229.833267,91.218033 231.464981,90.220703 233.166611,90.082199 
	C236.976532,89.772049 240.821274,89.889359 244.651825,89.832596 
	C245.455551,91.601761 246.259277,93.370926 247.092514,95.471252 
z"/>
<path fill="#456BB7" opacity="1.000000" stroke="none" 
	d="
M43.420185,58.157475 
	C49.340221,58.000172 54.989590,57.899609 60.630764,58.070202 
	C62.076881,58.113934 63.497108,59.013828 65.023956,59.944954 
	C63.279587,62.187153 61.440483,64.004784 59.224892,65.567581 
	C57.246590,64.875633 55.656582,64.120277 54.040768,64.060310 
	C48.925930,63.870502 43.801441,63.940670 38.680687,63.910297 
	C40.169281,62.045212 41.657875,60.180130 43.420185,58.157475 
z"/>
<path fill="#5974B7" opacity="1.000000" stroke="none" 
	d="
M54.050819,71.409515 
	C52.250771,73.860397 50.450729,76.311279 48.082077,78.633980 
	C41.555145,77.970299 35.596817,77.434814 29.638485,76.899323 
	C31.214933,74.346260 32.791382,71.793190 34.843277,69.410805 
	C36.970589,70.054535 38.602245,70.830704 40.278206,70.942429 
	C44.859097,71.247841 49.458652,71.273232 54.050819,71.409515 
z"/>
<path fill="#7180B4" opacity="1.000000" stroke="none" 
	d="
M244.554047,89.470047 
	C240.821274,89.889359 236.976532,89.772049 233.166611,90.082199 
	C231.464981,90.220703 229.833267,91.218033 227.959900,92.208405 
	C226.185699,90.025604 224.621414,87.459999 222.970520,84.568489 
	C227.837112,83.492004 232.791855,82.751083 237.741699,81.978912 
	C238.379044,81.879486 238.991135,81.618088 239.872711,81.116013 
	C241.572433,83.569366 243.014343,86.338425 244.554047,89.470047 
z"/>
<path fill="#7583B3" opacity="1.000000" stroke="none" 
	d="
M19.251904,98.885658 
	C20.160942,96.390923 21.069981,93.896187 22.701164,91.168335 
	C27.371820,90.957451 31.340057,90.763199 35.258068,91.120186 
	C36.616642,91.243965 37.850655,92.734756 39.141563,93.601173 
	C38.600983,95.254478 38.060406,96.907776 36.814232,98.784714 
	C30.489729,98.967461 24.870817,98.926559 19.251904,98.885658 
z"/>
<path fill="#989AAD" opacity="1.000000" stroke="none" 
	d="
M13.480701,122.390717 
	C18.810564,121.990654 23.990334,121.944633 29.563309,121.946617 
	C29.820908,125.120674 29.685303,128.246719 29.349033,131.722244 
	C26.122473,131.381149 23.122013,130.523132 20.061836,130.058182 
	C17.983515,129.742432 15.821442,129.977951 13.206409,129.936874 
	C12.920867,127.519478 13.125738,125.132118 13.480701,122.390717 
z"/>
<path fill="#5070B7" opacity="1.000000" stroke="none" 
	d="
M54.302986,71.286018 
	C49.458652,71.273232 44.859097,71.247841 40.278206,70.942429 
	C38.602245,70.830704 36.970589,70.054535 35.125114,69.222237 
	C36.002182,67.317001 37.072853,65.771004 38.412106,64.067657 
	C43.801441,63.940670 48.925930,63.870502 54.040768,64.060310 
	C55.656582,64.120277 57.246590,64.875633 58.926567,65.711807 
	C57.521538,67.794762 56.038345,69.478645 54.302986,71.286018 
z"/>
<path fill="#8F93AF" opacity="1.000000" stroke="none" 
	d="
M233.777481,108.523201 
	C238.996307,107.448891 244.288864,106.737732 250.064880,106.052841 
	C251.168549,108.396133 251.788727,110.713165 252.478989,113.409439 
	C247.282059,114.201233 242.015045,114.613800 236.263184,115.045670 
	C235.135941,113.005432 234.493576,110.945892 233.777481,108.523201 
z"/>
<path fill="#4C76C1" opacity="1.000000" stroke="none" 
	d="
M206.729309,205.122803 
	C208.011093,205.438370 208.873978,205.744461 209.736877,206.050552 
	C208.965363,207.979523 208.398331,210.033813 207.328171,211.779709 
	C206.857620,212.547379 205.362793,212.687210 203.248856,213.559448 
	C205.359970,213.822235 206.538223,213.666901 207.338593,214.144638 
	C208.348358,214.747406 209.487289,215.757629 209.746414,216.797440 
	C209.955048,217.634583 209.088821,219.519196 208.439423,219.650223 
	C206.123276,220.117584 203.654251,220.303284 201.345306,219.942123 
	C200.863815,219.866821 200.741760,217.007675 200.596863,215.418396 
	C200.479065,214.126083 200.724335,212.794022 200.550659,211.514603 
	C199.746613,205.591232 200.135437,205.125778 206.729309,205.122803 
z"/>
<path fill="#5070B7" opacity="1.000000" stroke="none" 
	d="
M230.251923,65.536880 
	C226.219818,66.228035 222.030243,66.491608 217.881348,67.054955 
	C215.930588,67.319839 214.058136,68.161415 211.974243,69.147003 
	C209.916702,67.708191 208.035141,65.864037 206.000885,63.749306 
	C207.186386,62.652889 208.455658,61.279392 209.875366,61.100597 
	C214.758652,60.485622 219.694534,60.288475 225.080597,59.890057 
	C227.070923,61.642735 228.591019,63.437462 230.251923,65.536880 
z"/>
<path fill="#6B7DB4" opacity="1.000000" stroke="none" 
	d="
M39.456154,93.398376 
	C37.850655,92.734756 36.616642,91.243965 35.258068,91.120186 
	C31.340057,90.763199 27.371820,90.957451 22.908398,90.896324 
	C23.711216,87.990715 25.028950,85.123993 26.810863,82.389053 
	C29.065479,83.013901 30.828335,83.716171 32.652069,83.956551 
	C36.477180,84.460739 40.334312,84.721977 44.178299,85.082962 
	C42.709114,87.787178 41.239929,90.491379 39.456154,93.398376 
z"/>
<path fill="#4772BF" opacity="1.000000" stroke="none" 
	d="
M156.794327,228.325165 
	C155.889694,229.727173 155.386658,231.263672 154.876450,232.797806 
	C154.467148,234.028503 154.049149,235.256317 153.635010,236.485413 
	C153.230530,236.395340 152.826065,236.305283 152.421585,236.215210 
	C151.980621,233.481049 151.539642,230.746872 151.098679,228.012711 
	C150.551910,228.067841 150.005142,228.122986 149.458389,228.178131 
	C148.882874,230.949158 148.307373,233.720200 147.731873,236.491241 
	C147.193802,236.400330 146.655746,236.309418 146.117676,236.218506 
	C146.117676,232.886612 146.117676,229.554718 146.117676,225.931915 
	C149.688644,225.758499 153.408844,225.330658 157.094101,225.534485 
	C158.364319,225.604767 160.399414,227.097000 160.597412,228.205414 
	C161.044022,230.705368 160.579224,233.372345 160.399200,235.965408 
	C160.391556,236.075317 159.264618,236.348572 159.101562,236.161041 
	C158.627792,235.616104 158.213669,234.908157 158.074310,234.205078 
	C157.697891,232.305969 157.476028,230.376221 156.794327,228.325165 
z"/>
<path fill="#7F89B2" opacity="1.000000" stroke="none" 
	d="
M19.073084,99.147926 
	C24.870817,98.926559 30.489729,98.967461 36.580742,99.014130 
	C36.102776,101.134171 35.152714,103.248451 33.592125,105.680878 
	C27.654854,105.999146 22.328114,105.999260 17.001373,105.999374 
	C17.632338,103.802979 18.263302,101.606590 19.073084,99.147926 
z"/>
<path fill="#878EB1" opacity="1.000000" stroke="none" 
	d="
M16.850407,106.331924 
	C22.328114,105.999260 27.654854,105.999146 33.441681,105.996719 
	C33.503212,108.165787 33.104656,110.337166 32.492401,112.793823 
	C26.874844,113.051674 21.470984,113.024269 15.611660,112.994492 
	C15.670609,110.882912 16.185024,108.773697 16.850407,106.331924 
z"/>
<path fill="#4974C0" opacity="1.000000" stroke="none" 
	d="
M84.092148,224.004150 
	C87.951416,220.637344 90.030304,221.145950 91.009529,225.326141 
	C91.829666,228.827240 92.557999,232.349838 93.685890,237.502594 
	C89.393784,234.190231 85.937759,231.653610 82.664818,236.982224 
	C82.327995,236.672272 81.991173,236.362305 81.654358,236.052338 
	C82.443275,232.173859 83.232201,228.295364 84.092148,224.004150 
z"/>
<path fill="#6278B6" opacity="1.000000" stroke="none" 
	d="
M44.439934,84.892548 
	C40.334312,84.721977 36.477180,84.460739 32.652069,83.956551 
	C30.828335,83.716171 29.065479,83.013901 27.076654,82.156952 
	C27.635115,80.290916 28.391966,78.788765 29.393654,77.092972 
	C35.596817,77.434814 41.555145,77.970299 47.796532,78.826279 
	C46.953583,80.998550 45.827579,82.850342 44.439934,84.892548 
z"/>
<path fill="#4A75C1" opacity="1.000000" stroke="none" 
	d="
M57.537521,206.635803 
	C59.122833,206.949905 60.407101,206.949905 61.711258,206.949905 
	C61.914413,206.278137 62.015308,205.811737 62.194263,205.377502 
	C62.743862,204.043869 63.323357,202.722549 63.891224,201.396454 
	C64.408905,202.771149 65.220619,204.113251 65.377380,205.527939 
	C65.631157,207.818085 65.642715,210.177277 65.382530,212.464767 
	C65.247864,213.648743 64.309486,214.741287 63.734222,215.875137 
	C63.231018,214.817230 62.653946,213.786270 62.254066,212.690643 
	C62.036285,212.093964 62.119228,211.387527 62.034039,210.325348 
	C60.648369,210.186691 59.252316,210.046997 57.587086,209.880371 
	C57.247265,212.001495 56.948040,213.869217 56.637417,215.808090 
	C53.244499,214.221558 52.911526,204.224274 56.559120,200.864639 
	C56.825466,203.010452 57.030972,204.666077 57.537521,206.635803 
z"/>
<path fill="#537CC4" opacity="1.000000" stroke="none" 
	d="
M171.642014,209.391373 
	C172.524384,205.220947 175.185944,204.150864 178.390747,205.362045 
	C181.843613,206.666992 182.307617,210.121262 180.870605,212.816727 
	C180.009155,214.432541 176.416397,216.285263 175.307083,215.690231 
	C173.517990,214.730560 172.765518,211.838348 171.642014,209.391373 
z"/>
<path fill="#4A75C1" opacity="1.000000" stroke="none" 
	d="
M188.437531,211.647736 
	C188.350601,207.410919 189.618195,204.574631 194.112411,205.086990 
	C197.826263,205.510406 198.653336,208.479294 197.980026,211.377533 
	C197.578720,213.104950 195.899033,215.266541 194.301483,215.825714 
	C191.385498,216.846359 189.209641,215.193756 188.437531,211.647736 
z"/>
<path fill="#4772BF" opacity="1.000000" stroke="none" 
	d="
M69.690918,215.644913 
	C68.652191,213.711136 67.438889,211.962784 67.405861,210.192398 
	C67.347336,207.055786 68.897736,204.657806 72.547493,205.057632 
	C76.445396,205.484650 77.189034,207.997070 76.401321,211.530365 
	C74.554230,211.790695 72.889656,212.025299 71.225090,212.259903 
	C71.216232,212.475342 71.207375,212.690781 71.198517,212.906235 
	C72.843269,213.217056 74.488029,213.527878 76.132782,213.838699 
	C76.146820,214.356537 76.160858,214.874359 76.174896,215.392181 
	C74.132599,215.534927 72.090302,215.677673 69.690918,215.644913 
z"/>
<path fill="#4772BF" opacity="1.000000" stroke="none" 
	d="
M128.075653,210.953461 
	C128.200256,207.070419 129.589142,204.688766 133.465973,205.059433 
	C137.291718,205.425201 137.621262,208.095016 137.222229,211.525284 
	C135.222321,211.770645 133.362885,211.998764 131.503448,212.226898 
	C131.495132,212.441437 131.486832,212.655975 131.478516,212.870514 
	C133.278885,213.189697 135.079254,213.508896 137.069351,213.861725 
	C133.255173,217.831772 129.689194,216.707214 128.075653,210.953461 
z"/>
<path fill="#4974C0" opacity="1.000000" stroke="none" 
	d="
M82.187294,216.019409 
	C80.526917,214.865662 79.289589,213.679977 78.052261,212.494293 
	C79.713905,211.009323 81.375549,209.524353 83.017334,208.057129 
	C82.011833,207.820557 80.460106,207.455460 78.908379,207.090363 
	C78.898918,206.576599 78.889450,206.062836 78.879990,205.549072 
	C80.913651,205.460220 84.301483,204.623077 84.739578,205.415909 
	C86.376518,208.378281 87.047226,211.874557 88.222900,215.625351 
	C85.791389,215.782227 84.200867,215.884857 82.187294,216.019409 
z"/>
<path fill="#426EBE" opacity="1.000000" stroke="none" 
	d="
M114.479034,231.768173 
	C114.576599,228.093582 115.511658,225.270309 119.499794,225.473495 
	C123.134003,225.658646 124.119621,228.113678 123.715652,231.682037 
	C121.846169,231.987701 120.014961,232.287125 118.183746,232.586548 
	C118.162872,232.872437 118.141998,233.158325 118.121124,233.444214 
	C119.843216,233.776566 121.565315,234.108932 123.434013,234.469589 
	C119.429199,238.104340 116.297470,237.205643 114.479034,231.768173 
z"/>
<path fill="#4974C0" opacity="1.000000" stroke="none" 
	d="
M148.918121,213.577179 
	C148.912750,209.179855 148.912750,205.237152 148.912750,201.294434 
	C149.776825,200.604065 150.640900,199.913696 151.504974,199.223328 
	C151.627609,200.381882 151.631683,201.570160 151.912262,202.689117 
	C152.118118,203.510193 152.494095,204.653534 153.123337,204.946503 
	C158.749573,207.566254 159.198730,208.589050 156.243881,216.100830 
	C155.480515,213.282120 154.717133,210.463409 153.953766,207.644699 
	C153.396149,207.725235 152.838531,207.805756 152.280914,207.886292 
	C152.148499,209.890656 152.150497,211.918091 151.812820,213.887253 
	C151.689880,214.604233 150.757782,215.182449 150.194855,215.823990 
	C149.771057,215.226608 149.347275,214.629211 148.918121,213.577179 
z"/>
<path fill="#4A75C1" opacity="1.000000" stroke="none" 
	d="
M105.356598,201.581665 
	C106.001015,202.936035 106.072266,204.530319 106.783424,204.902756 
	C112.532822,207.913757 113.258102,209.550964 110.513290,217.358978 
	C109.392151,213.273560 108.620354,210.461105 107.848549,207.648651 
	C107.363632,207.755798 106.878716,207.862946 106.393806,207.970093 
	C105.931877,210.660736 105.469955,213.351395 105.008034,216.042038 
	C104.343658,215.967224 103.679291,215.892426 103.014915,215.817612 
	C103.014915,211.180695 102.984825,206.543030 103.102753,201.909103 
	C103.108719,201.674576 104.391609,201.472565 105.356598,201.581665 
z"/>
<path fill="#4974C0" opacity="1.000000" stroke="none" 
	d="
M211.862549,210.218842 
	C211.504547,208.424469 211.231964,207.022552 210.959366,205.620651 
	C211.500793,205.378952 212.042221,205.137268 212.583649,204.895584 
	C213.620697,207.350830 214.657730,209.806061 215.664124,212.188721 
	C216.595383,209.869766 217.603882,207.358490 218.612396,204.847229 
	C220.453674,209.815109 217.844284,218.579025 215.170898,220.088562 
	C214.100266,216.940277 213.024124,213.775772 211.862549,210.218842 
z"/>
<path fill="#416EBD" opacity="1.000000" stroke="none" 
	d="
M172.123962,228.699081 
	C172.894974,234.435913 168.008286,230.902817 165.909119,233.320862 
	C168.133102,233.737854 169.982819,234.084656 171.832535,234.431473 
	C169.155151,236.687210 165.826904,237.896713 164.133377,234.699936 
	C163.040146,232.636322 163.410156,228.433548 164.891541,226.696442 
	C167.002396,224.221207 170.332443,224.738373 172.123962,228.699081 
z"/>
<path fill="#426EBE" opacity="1.000000" stroke="none" 
	d="
M161.202438,215.637192 
	C160.689941,212.176727 160.527298,208.921890 160.286972,204.112778 
	C163.973541,205.371170 167.610779,205.526566 169.038101,207.381989 
	C170.723663,209.573090 170.749420,213.272308 168.126221,216.791397 
	C167.032867,213.211655 166.244202,210.601425 165.402115,208.008530 
	C165.376984,207.931168 164.791611,208.035736 164.634232,208.045319 
	C163.588287,210.691620 162.570282,213.267212 161.202438,215.637192 
z"/>
<path fill="#4571BF" opacity="1.000000" stroke="none" 
	d="
M129.868851,236.635559 
	C128.090836,236.297409 126.676315,235.937759 125.261780,235.578125 
	C125.331184,235.157288 125.400581,234.736450 125.469978,234.315628 
	C126.966850,234.090363 128.463730,233.865097 130.464005,233.564072 
	C128.437546,231.429657 122.938568,231.444016 126.020454,227.097305 
	C128.030975,224.261673 131.013321,224.981155 134.490311,227.552490 
	C132.069321,227.929947 130.595337,228.159744 129.366623,228.351318 
	C130.867645,229.962448 132.572510,231.446106 133.663071,233.292587 
	C133.852127,233.612671 131.441940,235.467911 129.868851,236.635559 
z"/>
<path fill="#4772BF" opacity="1.000000" stroke="none" 
	d="
M136.018814,230.967972 
	C136.207657,229.126068 136.261032,226.514771 137.125992,226.210480 
	C139.061508,225.529556 141.401184,225.997467 143.576233,225.997467 
	C143.580124,226.561584 143.584000,227.125702 143.587891,227.689804 
	C142.119736,227.927383 140.651581,228.164948 138.600677,228.496811 
	C140.966690,230.405441 146.030930,230.621918 143.198685,234.876282 
	C141.256027,237.794373 138.185745,236.951324 135.412537,234.357346 
	C137.115524,234.101608 138.818512,233.845871 141.412308,233.456360 
	C139.168976,232.495346 137.710327,231.870468 136.018814,230.967972 
z"/>
<path fill="#4571BF" opacity="1.000000" stroke="none" 
	d="
M110.318283,225.596558 
	C111.389503,226.100784 112.114182,226.537476 113.876747,227.599594 
	C111.186142,227.951675 109.699272,228.146240 107.501892,228.433792 
	C110.138260,230.355820 115.065948,230.667297 112.297752,234.890335 
	C110.389641,237.801239 107.305389,236.963776 104.605957,234.361252 
	C106.283806,234.107224 107.961655,233.853210 108.880478,233.714096 
	C107.461243,232.010864 105.967598,230.218323 104.473953,228.425797 
	C106.306549,227.460205 108.139145,226.494614 110.318283,225.596558 
z"/>
<path fill="#3F6CBD" opacity="1.000000" stroke="none" 
	d="
M179.006134,228.216003 
	C177.788528,230.744553 176.998749,233.350052 176.208954,235.955551 
	C175.747604,236.037231 175.286255,236.118896 174.824905,236.200562 
	C174.509430,232.913666 174.193939,229.626770 173.879257,226.348114 
	C183.277069,224.992371 185.494659,227.745117 181.813370,237.723648 
	C180.793335,233.680817 180.113632,230.986877 179.006134,228.216003 
z"/>
<path fill="#3F6CBD" opacity="1.000000" stroke="none" 
	d="
M99.306801,232.680832 
	C97.585609,231.343750 95.981331,230.403519 94.818321,229.076553 
	C94.524200,228.740967 95.512901,226.407410 96.127708,226.306580 
	C98.291969,225.951675 100.550011,226.168671 102.772461,226.168671 
	C102.789581,226.648483 102.806694,227.128281 102.823814,227.608093 
	C101.359543,227.855103 99.895279,228.102112 98.010994,228.419983 
	C99.924362,230.550018 105.653511,230.803482 102.186234,235.108643 
	C101.055550,236.512604 97.605927,236.048950 95.216873,236.439468 
	C95.121796,235.841675 95.026711,235.243881 94.931633,234.646103 
	C96.483536,234.075485 98.035439,233.504883 99.306801,232.680832 
z"/>
<path fill="#4A75C1" opacity="1.000000" stroke="none" 
	d="
M186.173798,224.499664 
	C187.242279,223.937805 188.544495,223.234344 189.142380,223.620728 
	C190.262161,224.344406 190.973892,225.699432 191.854675,226.792328 
	C188.460449,230.349213 188.452621,231.486893 191.514694,236.625336 
	C189.979828,236.148209 187.285324,235.929688 187.111237,235.149094 
	C186.365829,231.806335 186.363129,228.297943 186.173798,224.499664 
z"/>
<path fill="#5D83C7" opacity="1.000000" stroke="none" 
	d="
M119.936180,204.153305 
	C119.319672,203.218369 119.129539,202.327972 118.939400,201.437592 
	C122.222977,201.437592 125.506561,201.437592 128.790131,201.437592 
	C129.003952,201.927673 129.217773,202.417770 129.431595,202.907852 
	C120.973549,204.501083 127.713516,212.631866 122.288147,217.214676 
	C122.081764,213.607697 122.092819,211.257675 121.766037,208.955612 
	C121.536118,207.335938 120.846764,205.781448 119.936180,204.153305 
z"/>
<path fill="#517AC3" opacity="1.000000" stroke="none" 
	d="
M98.416580,210.941010 
	C99.232414,212.502365 100.036804,213.635361 100.841202,214.768372 
	C100.769989,215.180847 100.698776,215.593323 100.627571,216.005798 
	C99.070625,215.626175 96.352188,215.561676 96.149506,214.814606 
	C95.024757,210.669174 93.104698,206.297318 96.731316,201.200867 
	C98.056297,203.423325 99.090591,205.158203 100.292618,207.174423 
	C100.020905,207.654968 99.213020,209.083817 98.416580,210.941010 
z"/>
<path fill="#517AC3" opacity="1.000000" stroke="none" 
	d="
M89.588226,203.580750 
	C89.838600,200.799332 92.010674,200.086517 92.303688,202.072754 
	C92.952515,206.471039 92.236565,211.073135 91.999969,215.588058 
	C91.992577,215.729156 91.134689,215.825668 89.582291,216.220352 
	C89.582291,211.945633 89.582291,207.979156 89.588226,203.580750 
z"/>
<path fill="#517AC3" opacity="1.000000" stroke="none" 
	d="
M183.605530,207.136429 
	C183.606888,204.905807 183.606888,203.129456 183.606888,200.818436 
	C184.971954,201.211166 186.276581,201.382126 186.289001,201.620438 
	C186.512909,205.916687 186.633987,210.221451 186.604050,214.523178 
	C186.600876,214.979019 185.516159,215.427338 184.933197,215.879150 
	C184.502228,215.279968 183.747452,214.705688 183.699112,214.077057 
	C183.533661,211.925232 183.616196,209.754318 183.605530,207.136429 
z"/>
<path fill="#4C76C1" opacity="1.000000" stroke="none" 
	d="
M146.713074,214.234436 
	C144.554596,214.623703 140.538101,215.230728 140.303986,214.545456 
	C139.475601,212.120926 139.171417,208.891678 140.207993,206.693375 
	C140.816742,205.402374 144.337936,205.484695 146.567307,206.151794 
	C145.050491,207.804153 143.533676,209.456497 142.016861,211.108856 
	C143.541183,212.025726 145.065491,212.942612 146.713074,214.234436 
z"/>
<path fill="#285BB3" opacity="1.000000" stroke="none" 
	d="
M85.642700,185.207062 
	C85.869164,185.225174 86.027191,185.539291 85.981918,185.964325 
	C85.710503,185.884521 85.642387,185.693787 85.642700,185.207062 
z"/>
<path fill="#285BB3" opacity="1.000000" stroke="none" 
	d="
M86.660294,75.901955 
	C86.775002,76.217575 86.519829,76.536301 85.980255,76.986526 
	C85.894043,76.713707 86.092232,76.309387 86.660294,75.901955 
z"/>
<path fill="#F9FAFD" opacity="1.000000" stroke="none" 
	d="
M119.305412,109.970245 
	C119.305550,106.524612 119.305550,103.561172 119.305550,100.105469 
	C127.385376,100.105469 135.121780,99.732307 142.798111,100.250038 
	C147.172821,100.545082 149.384918,104.481789 149.244171,109.467529 
	C149.101929,114.505753 146.389008,118.091415 141.105469,118.465942 
	C134.057022,118.965561 126.946510,118.589409 119.305275,118.589409 
	C119.305275,115.667847 119.305275,113.060143 119.305412,109.970245 
z"/>
</svg>