<?xml version="1.0" encoding="utf-8"?>
<!-- Generator: Adobe Illustrator 24.2.0, SVG Export Plug-In . SVG Version: 6.00 Build 0)  -->
<svg version="1.1" id="Layer_1" xmlns="http://www.w3.org/2000/svg" xmlns:xlink="http://www.w3.org/1999/xlink" x="0px" y="0px"
	 viewBox="0 0 740 740" style="enable-background:new 0 0 740 740;" xml:space="preserve">
<style type="text/css">
	.st0{fill-rule:evenodd;clip-rule:evenodd;fill:#B8E5FA;}
	.st1{fill-rule:evenodd;clip-rule:evenodd;fill:#2C25B3;}
	.st2{fill:#FFFFFF;}
</style>
<g id="Layer_2_00000153683252810549432800000011082053218771089324_">
	<g id="Layer_1-2">
		<path id="Combined-Shape" class="st0" d="M-249.8,256H-20v234h-229.8v215.5h-225.7V490H-697V256h221.5V34.5h225.7V256z"/>
		<g id="Group-4-Copy">
			<path id="Combined-Shape-2" class="st1" d="M-538,154.4c95.5,0,156.9,42.5,156.9,111.2S-451.4,376.1-538,376.1
				s-156.9-49.5-156.9-110.5S-633.5,154.4-538,154.4z M-538.5,184.3c-71.3,2.5-124.5,34.7-124.5,77.4s53.2,77.5,124.5,77.5
				s123.4-40,123.4-77.5S-467.3,181.7-538.5,184.3L-538.5,184.3z"/>
			<path id="Combined-Shape-3" class="st1" d="M-663.7,370.2v75.8h0.2c2.5,53.2,33.8,90.5,115.7,87.5c80.7-3,130.8-47.3,132.9-87.5
				h0.1v-77.6h33.7v197.6l-34.1,45.9v-99.9c-26.9,28.9-71.3,52.1-132.6,52.1c-105.8,0-147.9-47.4-149.3-116.3l0,0V35h33.4v44.6h90.6
				v28h-90.6v262.8L-663.7,370.2z"/>
			<path id="Combined-Shape-4" class="st1" d="M-414.8,562c20.5-13.8,33.6-17.3,33.6,2.1c0,108.8-100.3,140.2-166,140.2
				c-116.3,0-150-38.6-150-80.5v-26.5h33.7c0.1,1.9,0,4.9,0.1,8.7l0,0c-0.1,6.4,0.7,12.7,2.3,18.9c3.3,12.5,11.1,26,30,33.9
				c24,10.9,58.4,11.3,92,11.3C-510.5,670-416.5,649.9-414.8,562z"/>
		</g>
		<g id="Group-4-Copy-2">
			<path id="Combined-Shape-5" class="st1" d="M-179.3,704.1c-95.5,0-156.9-42.5-156.9-111.2s70.2-110.5,156.9-110.5
				s156.9,49.5,156.9,110.5S-83.8,704.1-179.3,704.1z M-178.8,674.3c71.3-2.5,124.5-34.7,124.5-77.4s-53.2-77.5-124.5-77.5
				s-123.4,40-123.4,77.5S-250.1,676.8-178.8,674.3z"/>
			<path id="Combined-Shape-6" class="st1" d="M-53.6,369.3v-75.8h-0.2c-2.5-53.2-33.8-90.5-115.7-87.5
				c-80.6,3-130.8,47.3-132.9,87.5h-0.1V371h-33.7V173.4l34.1-45.9v99.9c26.9-28.9,71.3-52.1,132.6-52.1
				c105.8,0,147.9,47.4,149.3,116.3l0,0v412.9h-33.3V369.1L-53.6,369.3z"/>
			<path id="Combined-Shape-7" class="st1" d="M-302.5,176.2c-20.5,13.5-33.6,16.9-33.6-2.5c0-108.8,100.3-138.5,166-138.5
				c116.3,0,150,38.6,150,80.5v26.5h-33.7c-0.2-1.9,0-4.9-0.1-8.7l0,0c0.1-6.4-0.7-12.7-2.3-18.9c-3.3-12.5-11.1-26-30-33.9
				c-24-10.9-58.4-11.3-92-11.3C-206.7,69.5-299.9,89.4-302.5,176.2z"/>
		</g>
	</g>
</g>
<g id="Layer_2_00000133517625595084555850000018046629160013688224_">
	<g id="Layer_1-2_1_">
		<g id="Page-1">
			<g id="Artboard">
				<g id="logo">
					<path id="Rectangle-6" class="st2" d="M3,0h734c1.7,0,3,1.3,3,3v734c0,1.7-1.3,3-3,3H3c-1.7,0-3-1.3-3-3V3C0,1.3,1.3,0,3,0z"/>
					<path id="Combined-Shape_1_" class="st0" d="M478.3,255.5h229.8v234H478.3V705H252.7V489.5H31.2v-234h221.5V34h225.7V255.5z"/>
					<g id="Group-4-Copy_1_">
						<path id="Combined-Shape-2_1_" class="st1" d="M190.1,153.9c95.5,0,156.9,42.5,156.9,111.2s-70.2,110.5-156.9,110.5
							S33.3,326.1,33.3,265.1S94.7,153.9,190.1,153.9z M189.6,183.8c-71.3,2.5-124.5,34.7-124.5,77.4s53.2,77.5,124.5,77.5
							s123.4-40,123.4-77.5S260.9,181.2,189.6,183.8L189.6,183.8z"/>
						<path id="Combined-Shape-3_1_" class="st1" d="M64.5,369.7v75.8h0.2c2.5,53.2,33.8,90.5,115.7,87.5
							c80.6-3,130.8-47.3,132.9-87.5h0.1V368H347v197.6l-34.1,45.9v-99.9c-26.9,28.9-71.3,52.1-132.6,52.1
							C74.4,563.7,32.4,516.3,31,447.4l0,0V34.5h33.4v44.6H155v28H64.4v262.8L64.5,369.7z"/>
						<path id="Combined-Shape-4_1_" class="st1" d="M313.4,561.5c20.5-13.8,33.6-17.3,33.6,2.1c0,108.8-100.3,140.2-166,140.2
							c-116.3,0-150-38.6-150-80.5v-26.5h33.7c0.2,1.9,0,4.9,0.1,8.7l0,0c-0.1,6.4,0.7,12.7,2.3,18.9c3.3,12.5,11.1,26,30,33.9
							c24,10.9,58.4,11.3,92,11.3C217.7,669.5,311.7,649.4,313.4,561.5z"/>
					</g>
					<g id="Group-4-Copy-2_1_">
						<path id="Combined-Shape-5_1_" class="st1" d="M548.9,703.6c-95.5,0-156.9-42.5-156.9-111.2s70.2-110.5,156.9-110.5
							s156.9,49.5,156.9,110.5S644.3,703.6,548.9,703.6z M549.4,673.8c71.3-2.5,124.5-34.7,124.5-77.4s-53.2-77.5-124.5-77.5
							S426,558.9,426,596.3S478.1,676.3,549.4,673.8z"/>
						<path id="Combined-Shape-6_1_" class="st1" d="M674.5,368.8v-75.8h-0.2c-2.5-53.2-33.8-90.5-115.7-87.5
							c-80.6,3-130.8,47.3-132.9,87.5h-0.1v77.6H392V172.9l34.1-45.9v99.9c26.9-28.9,71.3-52.1,132.6-52.1
							c105.8,0,147.9,47.4,149.3,116.3l0,0V704h-33.3V368.6L674.5,368.8z"/>
						<path id="Combined-Shape-7_1_" class="st1" d="M425.7,175.7c-20.5,13.5-33.6,16.9-33.6-2.5C392,64.4,492.3,34.7,558,34.7
							c116.3,0,150,38.6,150,80.5v26.5h-33.7c-0.2-1.9,0-4.9-0.1-8.7l0,0c0.1-6.4-0.7-12.7-2.3-18.9c-3.3-12.5-11.1-26-30-33.9
							c-24-10.9-58.4-11.3-92-11.3C521.4,69,428.2,88.9,425.7,175.7z"/>
					</g>
				</g>
			</g>
		</g>
	</g>
</g>
</svg>
